<?xml version="1.0" encoding="UTF-8" standalone="no"?>
<svg width="610px" height="335px" viewBox="0 0 610 335" version="1.1" xmlns="http://www.w3.org/2000/svg" xmlns:xlink="http://www.w3.org/1999/xlink" xmlns:sketch="http://www.bohemiancoding.com/sketch/ns">
    <!-- Generator: Sketch 3.5.1 (25234) - http://www.bohemiancoding.com/sketch -->
    <title>Rectangle 6 + M + H</title>
    <desc>Created with Sketch.</desc>
    <defs></defs>
    <g id="Welcome" stroke="none" stroke-width="1" fill="none" fill-rule="evenodd" sketch:type="MSPage">
        <g id="Tablet-Portrait" sketch:type="MSArtboardGroup" transform="translate(-79.000000, -677.000000)">
            <g id="Rectangle-6-+-M-+-H" sketch:type="MSLayerGroup" transform="translate(84.000000, 682.000000)">
                <rect id="Rectangle-6" stroke="#27DA93" stroke-width="5" sketch:type="MSShapeGroup" x="0" y="0" width="600" height="325"></rect>
                <g id="M-+-H" transform="translate(51.000000, 50.000000)" fill="#27DA93" sketch:type="MSShapeGroup">
                    <g id="Group" transform="translate(274.179856, 0.000000)">
                        <path d="M214.928058,115.2 L213.987529,115.2 L9.89208633,115.2 L9.89208633,219.6 L9.89208633,224.1 L0.899280576,224.1 L0.899280576,219.6 L0.899280576,5.4 L0.899280576,0.9 L9.89208633,0.9 L9.89208633,5.4 L9.89208633,106.2 L213.987529,106.2 L214.928058,106.2 L214.928058,5.4 L214.928058,0.9 L223.920863,0.9 L223.920863,5.4 L223.920863,219.6 L223.920863,224.1 L214.928058,224.1 L214.928058,219.6 L214.928058,115.2 Z" id="Line"></path>
                    </g>
                    <path d="M112.646287,193.405903 L10.2894107,0.823559346 L8.74689432,0.858468186 L0.858029173,0.858468186 L0.858029173,5.32679962 L0.858029173,219.806708 L0.858029173,224.27504 L9.85976284,224.27504 L9.85976284,219.806708 L9.85976284,19.989893 L112.425354,213.076452 L114.181158,209.77357 L114.185638,209.780346 L214.877878,20.0042451 L214.877878,219.806708 L214.877878,224.27504 L223.879612,224.27504 L223.879612,219.806708 L223.879612,5.32679962 L223.879612,0.858468186 L215.990747,0.858468186 L214.44823,0.823559346 L112.646287,193.405903 Z" id="Line"></path>
                </g>
            </g>
        </g>
    </g>
</svg>