<?xml version="1.0" encoding="UTF-8" standalone="no"?>
<svg width="7px" height="53px" viewBox="0 0 7 53" version="1.1" xmlns="http://www.w3.org/2000/svg" xmlns:xlink="http://www.w3.org/1999/xlink" xmlns:sketch="http://www.bohemiancoding.com/sketch/ns">
    <!-- Generator: Sketch 3.5.2 (25235) - http://www.bohemiancoding.com/sketch -->
    <title>toronto-skyline-dodger-blue-silhouette</title>
    <desc>Created with Sketch.</desc>
    <defs>
        <path id="path-1" d="M1578.3,546.5 L1578.3,498.7 L1556.2,498.7 L1556.2,459.9 L1459.9,459.9 L1459.9,441 L1429.8,441 L1429.8,460 L1421.7,460 L1421.7,353.3 L1381.6,343.9 L1381.6,437.4 L1372.9,437.4 L1372.9,394.6 L1355.5,394.6 L1355.5,437.4 L1347.4,437.4 L1347.4,450.4 L1336.7,450.4 L1336.7,468.7 L1322,468.7 L1322,384.2 L1318,384.2 L1318,371.9 L1312.7,371.9 L1312.7,301.4 L1266.6,301.4 L1266.6,354.9 L1259.2,354.9 L1259.2,346.8 L1255.9,346.8 L1255.9,331.7 L1247.8,331.7 L1247.8,329.3 L1221.7,329.3 L1210.7,329.3 L1210.7,301.2 L1207,301.2 L1207,329.3 L1196.3,329.3 L1196.3,344 L1191,344 L1191,358 L1186.4,358 L1186.4,366.1 L1146.9,366.1 L1146.9,389.2 L1133.5,389.2 L1133.5,301.2 L1120,301.2 L1120,294.6 L1088.9,294.6 L1088.9,301.2 L1072.2,301.2 L1072.2,350.6 L1044.8,350.6 L1044.8,394.7 L1004,394.7 L1004,416.8 L989.3,416.8 L989.3,429.5 L984.7,429.5 L984.7,434.1 L940.6,434.1 L940.6,429.5 L905.9,429.5 L905.9,460 L895.8,460 L895.8,424.2 L856.3,424.2 L856.3,376.8 L849.7,376.8 L849.7,366.1 L849.7,358 L833.7,358 L833.7,366.1 L817,366.1 L817,376.8 L811,376.8 L811,424.2 L796,424.2 L796,372 L754.9,372 L754.9,437.6 L731.8,437.6 L731.8,446.3 L722.4,446.3 L722.4,441.8 L708.4,441.8 L708.4,407.2 L646.3,407.2 L646.3,346.6 L604.2,346.6 L604.2,429.5 L568.2,429.5 L568.2,391.3 L568.2,372 L526.7,372 L526.7,379.8 L516.6,391.5 L516.6,437.6 L507.9,437.6 L507.9,471.7 L482.5,471.7 L482.5,450.6 L482.5,437.6 L451.4,437.6 L451.4,450.6 L429,450.6 L429,478.3 L415,478.3 L415,516.5 L397,516.5 L376.3,516.5 L376.3,494.4 L368.3,494.4 C366.6,474.7 361.1,411.5 359.4,376.7 C357.5,338.1 354,251.5 353.4,239.7 C362.4,238.2 368.9,234.5 368.9,230.2 C368.9,228.5 367.8,226.8 366,225.3 L369.7,225.3 L369.7,207.4 L362.8,207.4 L362.8,197.2 L350,197.2 L350,190.8 L353.7,190.8 L353.7,182.6 L350,182.6 L350,66.2 L346.8,66.2 L346.8,26.7 L345.3,26.7 L345.3,0 L345,0 L345,26.8 L343.5,26.8 L343.5,66.3 L340.3,66.3 L340.3,182.6 L336.6,182.6 L336.6,190.9 L340.3,190.9 L340.3,197.3 L327.4,197.3 L327.4,207.5 L320.5,207.5 L320.5,225.4 L324.2,225.4 C322.3,226.9 321.3,228.4 321.3,230.3 C321.3,234.8 328.2,238.6 337.9,240 L337.9,442.3 L334.6,442.3 L334.6,429.6 L330.6,429.6 L330.6,418.9 L315.2,418.9 L315.2,429.6 L310,429.6 L310,442.3 L310,451.7 L306.7,451.7 L306.7,497.8 L297.3,497.8 L297.3,487 L268.5,487 L268.5,497.7 L260.4,497.7 L260.4,516.4 L248.3,516.4 L248.3,480 L239,480 L239,471.7 L226.3,471.7 L226.3,480 L217.6,480 L217.6,471.7 L191.5,471.7 L191.5,507.9 C181.8,502.5 170.6,498.1 158.1,495 L158.1,478.3 L136.8,478.3 L136.8,473 L126.1,473 L126.1,478.3 L115.4,478.3 L115.4,489.7 L113.9,489.7 C107.3,489.7 100.9,490.1 94.7,490.6 L94.7,478.3 L75.2,478.3 L75.2,473 L63.8,473 L63.8,478.3 L51.1,478.3 L51.1,500.8 C25,511.2 6.8,527.6 3,546.5 L0.3,546.5 L0.3,588 L1072.1,588 L1133.6,588 L1590.3,588 L1590.3,546.5 L1578.3,546.5 L1578.3,546.5 Z"></path>
    </defs>
    <g id="Page-1" stroke="none" stroke-width="1" fill="none" fill-rule="evenodd" sketch:type="MSPage">
        <g id="toronto-skyline-dodger-blue-silhouette" sketch:type="MSLayerGroup" transform="translate(0.000000, -535.000000)">
            <mask id="mask-2" sketch:name="Mask" fill="white">
                <use xlink:href="#path-1"></use>
            </mask>
            <use id="Mask" sketch:type="MSShapeGroup" xlink:href="#path-1"></use>
            <rect id="Rectangle-1" fill="#D8D8D8" sketch:type="MSShapeGroup" mask="url(#mask-2)" x="-1" y="-37" width="8" height="643"></rect>
        </g>
    </g>
</svg>